<svg xmlns="http://www.w3.org/2000/svg" xmlns:xlink="http://www.w3.org/1999/xlink" viewBox="0 0 83.66 83.66">
  <defs>
    <style>
      .cls-1{stroke:#000;stroke-width:4px;fill:url(#radial-gradient);}
      .cls-1,.cls-2{stroke-miterlimit:10;}
      .cls-2{fill:none;stroke:#4f6827;stroke-width:0.75px;}
      .black{fill:#000;}
    </style>
    <radialGradient id="radial-gradient" cx="41.83" cy="41.83" r="39.83" gradientUnits="userSpaceOnUse">
      <stop offset="0.64" stop-color="#2c6200"/>
      <stop offset="0.72" stop-color="#2b5b03"/>
      <stop offset="0.84" stop-color="#27470c"/>
      <stop offset="0.97" stop-color="#21271b"/>
      <stop offset="1" stop-color="#1f1f1f"/>
    </radialGradient>
  </defs>
  <g id="full-iris" data-name="full-iris">
    <circle id="iris" class="cls-1" cx="41.83" cy="41.83" r="39.83"/>
    <path class="cls-2" d="M45.53,57.23c0-7.6-2-13.76-4.52-13.76s-4.52,6.16-4.52,13.76,2,19.09,4.52,19.09S45.53,64.82,45.53,57.23Z"/>
    <path class="cls-2" d="M48.37,56.3c-1.47-7.45-4.65-13.1-7.1-12.61S38,50.61,39.51,58.06,45.2,76.4,47.65,75.91,49.85,63.76,48.37,56.3Z"/>
    <path class="cls-2" d="M51,54.85c-2.9-7-7.11-12-9.42-11s-1.83,7.41,1.07,14.44,9.14,16.88,11.45,15.93S53.88,61.87,51,54.85Z"/>
    <path class="cls-2" d="M53.27,52.91c-4.2-6.33-9.3-10.34-11.37-9s-.36,7.63,3.84,14S58,72.69,60.07,71.31,57.47,59.24,53.27,52.91Z"/>
    <path class="cls-2" d="M55.13,50.56C49.78,45.17,44,42.22,42.23,44s1.14,7.56,6.49,13S63.61,69.05,65.38,67.29,60.48,56,55.13,50.56Z"/>
    <path class="cls-2" d="M56.5,47.9C50.2,43.65,44,41.88,42.57,44s2.58,7.19,8.88,11.44,17,9,18.35,6.93S62.8,52.15,56.5,47.9Z"/>
    <path class="cls-2" d="M57.33,45c-7-2.94-13.46-3.47-14.43-1.17s3.92,6.55,10.93,9.5,18.38,5.54,19.35,3.24S64.33,48,57.33,45Z"/>
    <path class="cls-2" d="M57.58,42c-7.44-1.53-13.88-.79-14.38,1.66s5.12,5.66,12.56,7.19,19.11,1.86,19.62-.58S65,43.57,57.58,42Z"/>
    <path class="cls-2" d="M57.25,39.06C49.65,39,43.48,41,43.46,43.48S49.59,48,57.19,48.1s19.1-1.89,19.12-4.38S64.85,39.12,57.25,39.06Z"/>
    <path class="cls-2" d="M56.35,36.21c-7.46,1.42-13.14,4.56-12.67,7S50.58,46.5,58,45.08s18.38-5.55,17.91-8S63.81,34.79,56.35,36.21Z"/>
    <path class="cls-2" d="M54.91,33.58c-7,2.85-12,7-11.07,9.34s7.41,1.89,14.45-1,16.95-9,16-11.33S62,30.74,54.91,33.58Z"/>
    <path class="cls-2" d="M53,31.29c-6.36,4.16-10.41,9.22-9,11.31s7.62.41,14-3.75S72.8,26.71,71.44,24.62,59.35,27.13,53,31.29Z"/>
    <path class="cls-2" d="M50.66,29.41C45.23,34.72,42.24,40.48,44,42.26s7.56-1.08,13-6.39,12.24-14.8,10.49-16.58S56.09,24.1,50.66,29.41Z"/>
    <path class="cls-2" d="M48,28c-4.29,6.27-6.1,12.49-4,13.9s7.21-2.53,11.51-8.79,9.12-16.9,7.06-18.31S52.3,21.75,48,28Z"/>
    <path class="cls-2" d="M45.13,27.17c-3,7-3.56,13.44-1.27,14.42s6.58-3.87,9.57-10.86,5.68-18.34,3.38-19.32S48.13,20.19,45.13,27.17Z"/>
    <path class="cls-2" d="M42.15,26.9c-1.58,7.43-.89,13.87,1.55,14.39S49.4,36.21,51,28.78s2-19.1-.44-19.62S43.73,19.47,42.15,26.9Z"/>
    <path class="cls-2" d="M39.17,27.21C39.06,34.8,41,41,43.49,41s4.61-6.1,4.72-13.69S46.46,8.22,44,8.18,39.28,19.61,39.17,27.21Z"/>
    <path class="cls-2" d="M36.31,28.09c1.37,7.47,4.47,13.17,6.92,12.72s3.34-6.87,2-14.35-5.43-18.41-7.88-18S35,20.62,36.31,28.09Z"/>
    <path class="cls-2" d="M33.68,29.51c2.79,7.06,6.93,12.05,9.25,11.13s1.94-7.39-.85-14.45-8.9-17-11.22-16.1S30.88,22.44,33.68,29.51Z"/>
    <path class="cls-2" d="M31.37,31.41c4.11,6.39,9.14,10.48,11.24,9.13s.47-7.63-3.65-14-12-15-14.13-13.62S27.26,25,31.37,31.41Z"/>
    <path class="cls-2" d="M29.47,33.73c5.28,5.47,11,8.5,12.8,6.77s-1-7.57-6.3-13S21.26,15.12,19.47,16.85,24.2,28.26,29.47,33.73Z"/>
    <path class="cls-2" d="M28.06,36.37c6.24,4.34,12.45,6.2,13.87,4.16S39.46,33.3,33.22,29,16.4,19.71,15,21.76,21.83,32,28.06,36.37Z"/>
    <path class="cls-2" d="M27.19,39.24c7,3,13.42,3.66,14.42,1.38S37.78,34,30.82,31s-18.31-5.8-19.31-3.52S20.23,36.19,27.19,39.24Z"/>
    <path class="cls-2" d="M26.9,42.22c7.42,1.64,13.87,1,14.4-1.45s-5-5.74-12.46-7.37-19.08-2.14-19.61.29S19.48,40.58,26.9,42.22Z"/>
    <path class="cls-2" d="M27.18,45.2C34.78,45.36,41,43.48,41,41S35,36.33,27.38,36.17s-19.13,1.6-19.19,4.1S19.59,45,27.18,45.2Z"/>
    <path class="cls-2" d="M28.05,48.07c7.48-1.32,13.2-4.37,12.76-6.83S34,37.86,26.49,39.17,8,44.46,8.46,46.92,20.56,49.38,28.05,48.07Z"/>
    <path class="cls-2" d="M29.45,50.71c7.08-2.74,12.1-6.85,11.2-9.17s-7.38-2-14.46.75S9.11,51.06,10,53.39,22.36,53.45,29.45,50.71Z"/>
    <path class="cls-2" d="M31.34,53C37.75,49,41.88,44,40.54,41.86s-7.62-.52-14,3.54-15,11.93-13.71,14S24.92,57.1,31.34,53Z"/>
    <path class="cls-2" d="M33.64,55c5.51-5.24,8.58-11,6.86-12.75s-7.58,1-13.08,6.2S15,63,16.69,64.83,28.13,60.18,33.64,55Z"/>
    <path class="cls-2" d="M36.27,56.37c4.39-6.2,6.29-12.39,4.25-13.83S33.28,45,28.89,51.16s-9.37,16.76-7.33,18.2S31.89,62.58,36.27,56.37Z"/>
    <path class="cls-2" d="M39.13,57.27c3.1-6.94,3.76-13.39,1.48-14.41S34,46.65,30.88,53.58s-5.94,18.26-3.66,19.28S36,64.2,39.13,57.27Z"/>
    <path class="cls-2" d="M42.11,57.58c1.69-7.4,1.09-13.86-1.34-14.41s-5.78,5-7.47,12.4S31,74.64,33.45,75.19,40.42,65,42.11,57.58Z"/>
    <circle id="pupil" class="black" cx="41.83" cy="41.83" r="17" />
  </g>
</svg>
